<svg id="Layer_1" data-name="Layer 1" xmlns="http://www.w3.org/2000/svg" viewBox="0 0 428.08 494.55"><defs><style>.cls-1{fill:#010101;}</style></defs><title>bowie</title><path class="cls-1" d="M127.75,284.75a.5.5,0,0,1-.33-.87c3.39-3,5.17-7.28,7-12.16.75-2,1.54-4.08,2.35-6.16,5-12.9,10.14-26.24,7.74-39.13-1.45-7.82-5.86-15.51-10.13-22.94-1.87-3.27-3.65-6.35-5.18-9.45-4.72-9.51-10.06-20.3-7.49-32l.26-1.16.65,1q.75,1.14,1.41,2.33c-.56-5.54-.82-11.12-1.08-16.61-.54-11.42-1.09-23.23-4.27-34.29-.55-1.91-1.19-3.87-1.81-5.76-2.36-7.21-4.81-14.67-3.12-22.09a.5.5,0,1,1,1,.22c-1.62,7.15.78,14.48,3.1,21.56.62,1.9,1.27,3.87,1.82,5.79,3.21,11.18,3.77,23,4.31,34.52.3,6.34.6,12.79,1.36,19.17A39.48,39.48,0,0,1,129,184.37l-.08,2.88-.9-2.74A90.92,90.92,0,0,1,124.31,167a37.79,37.79,0,0,0-1.89-3.52c-1.9,10.83,3,20.6,7.65,30.07,1.52,3.07,3.29,6.14,5.15,9.4,4.31,7.51,8.76,15.27,10.25,23.26,2.45,13.17-2.76,26.65-7.8,39.68-.8,2.07-1.59,4.12-2.34,6.15-1.86,5-3.68,9.41-7.25,12.56A.5.5,0,0,1,127.75,284.75Zm-1.93-114a89.87,89.87,0,0,0,2.05,9.93A38.59,38.59,0,0,0,125.82,170.73Z" transform="translate(-0.03 0)"/><path class="cls-1" d="M125.39,285.46l2-2.81a.5.5,0,0,1,.81.58l-.51.71a44.22,44.22,0,0,1,9.22-.21c5,.23,9.63.45,13.67-1.87,4.45-2.56,6.75-7.38,9.1-13a.5.5,0,0,1,.92.39c-1.87,4.43-4.42,10.5-9.52,13.43-4.3,2.47-9.34,2.23-14.22,2a37.85,37.85,0,0,0-10.2.43Z" transform="translate(-0.03 0)"/><path class="cls-1" d="M205.23,302.71A38.75,38.75,0,0,1,193,301c-9.32-3.09-16.22-10.79-21.19-17.15a147.16,147.16,0,0,1-23.69-44.08.5.5,0,0,1,.95-.32,146.18,146.18,0,0,0,23.53,43.78c4.88,6.25,11.65,13.81,20.72,16.82,7.11,2.36,15,1.7,22,1.11,5.33-.45,10-1.06,13.47-4a22.83,22.83,0,0,0,4-4.92,25.79,25.79,0,0,1,8.35-8.5l1.53-1.13a63.56,63.56,0,0,0,13.06-13.31c8.2-11.27,12.07-24.42,15-36.94,1.67-7,5.09-11.41,8.71-16a56.39,56.39,0,0,0,7.23-11l6.52-13.76a.5.5,0,1,1,.9.43l-6.52,13.76a57.28,57.28,0,0,1-7.35,11.17c-3.55,4.53-6.91,8.81-8.52,15.64-3,12.62-6.9,25.88-15.2,37.3a64.52,64.52,0,0,1-13.27,13.52l-1.54,1.14a24.79,24.79,0,0,0-8.11,8.25,23.87,23.87,0,0,1-4.15,5.12c-3.67,3.13-8.53,3.77-14,4.23C212.18,302.42,208.72,302.71,205.23,302.71Z" transform="translate(-0.03 0)"/><path class="cls-1" d="M167.8,194.61h-.28c-5.87-.07-11-2.46-13.81-6.4a.5.5,0,1,1,.82-.58c2.6,3.68,7.46,5.91,13,6,4.92.06,9.8-1.45,14.76-3.12a.5.5,0,1,1,.32.95C177.65,193.11,172.79,194.61,167.8,194.61Z" transform="translate(-0.03 0)"/><path class="cls-1" d="M242.41,192.05a27.74,27.74,0,0,1-6.72-.94c-1-.25-2-.53-3-.8-3.53-1-7.17-2-10.81-1.69a.51.51,0,0,1-.54-.45.5.5,0,0,1,.45-.54c3.81-.34,7.55.71,11.16,1.72,1,.27,2,.55,2.94.8,5.86,1.48,10.23,1.16,13.36-1a.5.5,0,1,1,.56.83A12.87,12.87,0,0,1,242.41,192.05Z" transform="translate(-0.03 0)"/><path class="cls-1" d="M216.54,183.88a.5.5,0,0,1-.29-.91,38.93,38.93,0,0,1,34.65-5.24.5.5,0,0,1-.32.95,37.91,37.91,0,0,0-33.75,5.11A.5.5,0,0,1,216.54,183.88Z" transform="translate(-0.03 0)"/><path class="cls-1" d="M191.9,183.82a.5.5,0,0,1-.28-.09c-5.22-3.58-10.94-7.14-17.41-8.88-6.89-1.85-13.74-1.16-18.79,1.9a.5.5,0,0,1-.52-.86c5.28-3.2,12.41-3.93,19.57-2,6.62,1.78,12.43,5.39,17.72,9a.5.5,0,0,1-.28.91Z" transform="translate(-0.03 0)"/><path class="cls-1" d="M159.42,262.63l-1-.17a242.46,242.46,0,0,1,16.19-62.13,161.69,161.69,0,0,1-31.86,15.42l-.64.23,0-.68c-.27-7.47,3.26-12.78,7-18.41,1.32-2,2.69-4.05,3.93-6.28a.5.5,0,1,1,.87.49c-1.26,2.26-2.64,4.33-4,6.34-3.52,5.31-6.85,10.33-6.84,17.13a160.72,160.72,0,0,0,32.34-15.93l1.35-.86-.61,1.48A241.48,241.48,0,0,0,160.33,256C164.66,244.06,173,233.84,181,223.9c3.24-4,6.58-8.1,9.61-12.25,3.52-4.83,6.83-10,10-15,7.69-12,15.61-24.47,27.07-33a141.42,141.42,0,0,0-35.56,18.81L190,184l1.47-2.27c7.82-12,18.35-22.27,28.53-32.17,11.81-11.48,24-23.35,31.87-38a.5.5,0,1,1,.88.47c-7.93,14.76-20.19,26.69-32.06,38.22-9.5,9.23-19.29,18.75-26.87,29.73a142.43,142.43,0,0,1,37-18.52l3.68-1.21-3.25,2.11c-12.91,8.37-21.47,21.78-29.74,34.75-3.21,5-6.54,10.24-10.07,15.1-3,4.17-6.39,8.3-9.64,12.29C172.4,236.12,162.67,248.1,159.42,262.63Z" transform="translate(-0.03 0)"/><path class="cls-1" d="M163.33,169.83a.49.49,0,0,1-.21,0,.5.5,0,0,1-.24-.66c7.75-16.76,16.42-33.33,25.77-49.26a.5.5,0,0,1,.86.51c-9.33,15.9-18,32.44-25.72,49.17A.5.5,0,0,1,163.33,169.83Z" transform="translate(-0.03 0)"/><path class="cls-1" d="M130.22,189.15a.49.49,0,0,1-.17,0,.5.5,0,0,1-.31-.64,56.23,56.23,0,0,0,1.68-31.09c-.08-.36-.17-.71-.26-1.07a25.5,25.5,0,0,1-.87-5,25.48,25.48,0,0,1,.78-6.23c.11-.53.22-1.05.32-1.58a47,47,0,0,0-1-21.73l-.18-.63,52.86-.5c11-.1,22.4-.21,33.42-2.15,9.44-1.65,16-4.46,20.61-8.82a138.63,138.63,0,0,1-2.72-18.36c-.6-6.06-1.09-12.5,0-18.83,1.24-7,4.41-12.79,8.94-16.43a.5.5,0,0,1,.63.78c-4.34,3.48-7.39,9.1-8.58,15.82-1.1,6.2-.61,12.57,0,18.56a137.75,137.75,0,0,0,2.76,18.52l.06.27-.2.19c-4.77,4.62-11.55,7.56-21.33,9.28-11.1,1.95-22.53,2.06-33.58,2.16l-51.55.49a48,48,0,0,1,.8,21.56c-.1.53-.21,1.06-.33,1.6a24.74,24.74,0,0,0-.76,6,24.77,24.77,0,0,0,.84,4.81c.09.36.18.72.26,1.08a57.24,57.24,0,0,1-1.71,31.65A.5.5,0,0,1,130.22,189.15Z" transform="translate(-0.03 0)"/><path class="cls-1" d="M243.39,108.47a.5.5,0,0,1-.41-.21c-2.79-4-4.1-9.17-4.11-16.33a69.62,69.62,0,0,1,9.53-35.29.5.5,0,1,1,.86.5,68.62,68.62,0,0,0-9.39,34.78c0,7,1.26,12,3.93,15.76a.5.5,0,0,1-.41.79Z" transform="translate(-0.03 0)"/><path class="cls-1" d="M247.3,111.58h-.05a.5.5,0,0,1-.44-.55c.85-7.86,1.73-16,4.43-23.65,2.12-6,6.33-14.23,14.34-19.07a.5.5,0,0,1,.52.86c-7.76,4.69-11.85,12.68-13.92,18.55-2.66,7.56-3.53,15.62-4.38,23.42A.5.5,0,0,1,247.3,111.58Z" transform="translate(-0.03 0)"/><path class="cls-1" d="M237.14,111.8H237c-4.79-1.14-6.84-6.6-8.08-11.22l-8-29.91a.5.5,0,1,1,1-.26l8,29.91c1.17,4.36,3.07,9.49,7.35,10.51a.5.5,0,0,1-.12,1Z" transform="translate(-0.03 0)"/><path class="cls-1" d="M233.35,113.74l-.15,0c-6.58-2.07-8.8-3.31-13.93-7.79L202.91,91.65a.5.5,0,1,1,.66-.75l16.36,14.28c5,4.36,7.16,5.57,13.57,7.59a.5.5,0,0,1-.15,1Z" transform="translate(-0.03 0)"/><path class="cls-1" d="M230,115.58h-.1c-6.81-1.45-12.52-4.74-18-7.93s-10.94-6.31-17.48-7.77a.5.5,0,0,1,.22-1c6.7,1.49,12.33,4.74,17.77,7.88s11.09,6.4,17.74,7.81a.5.5,0,0,1-.1,1Z" transform="translate(-0.03 0)"/><path class="cls-1" d="M292.68,206.85a.5.5,0,0,1-.44-.27l-5.36-10.23c-.82-1.56-1.67-3-3.06-3.52a6.67,6.67,0,0,0-1.61-.3,6.59,6.59,0,0,1-2.1-.46,6.13,6.13,0,0,1-2.73-3.28c-4.1-9-3.62-19.44-2.61-28.48l.13-1.19c.87-7.71,1.78-15.68-2-22.18-1.85-3.22-4.78-5.89-7.61-8.47-4.06-3.7-8.26-7.52-9.2-13a.5.5,0,0,1,1-.17c.88,5.13,4.77,8.67,8.88,12.42,2.89,2.63,5.88,5.35,7.8,8.71,3.9,6.79,3,14.93,2.09,22.79l-.13,1.19c-1,8.9-1.47,19.18,2.53,27.95a5.27,5.27,0,0,0,2.24,2.78,5.75,5.75,0,0,0,1.79.38,7.49,7.49,0,0,1,1.86.36c1.73.64,2.73,2.33,3.6,4l5.36,10.23a.5.5,0,0,1-.44.73Z" transform="translate(-0.03 0)"/><path class="cls-1" d="M296,194.59a.5.5,0,0,1-.46-.69,48.58,48.58,0,0,0-.47-37.31l-.35-.81a21.14,21.14,0,0,1-1.47-4,19.86,19.86,0,0,1-.33-4.19,163.81,163.81,0,0,1,5.71-43.34.5.5,0,0,1,1,.26,162.84,162.84,0,0,0-5.68,43.08,18.83,18.83,0,0,0,.3,4,20.48,20.48,0,0,0,1.41,3.85l.36.81a49.59,49.59,0,0,1,.48,38.08A.5.5,0,0,1,296,194.59Z" transform="translate(-0.03 0)"/><path class="cls-1" d="M115.87,66.2a.5.5,0,0,1-.29-.91,9.33,9.33,0,0,0,3.7-6,2.32,2.32,0,0,1-.23-.44,5.59,5.59,0,0,1,.14-3.38l.51-1.94.46,2a9.86,9.86,0,0,1,.17,3.53,1.54,1.54,0,0,0,.65.39.81.81,0,0,0,.73-.1c.44-.34.46-1.1.43-1.8-.12-2.51-.33-5-.61-7.55l0-.41.39-.13a9.33,9.33,0,0,0,6.1-7l1,.1a6.34,6.34,0,0,0,.59,3.45,2.19,2.19,0,0,0,1.5,1,1.23,1.23,0,0,0,1-.28,2.75,2.75,0,0,0,.63-1.51,26.11,26.11,0,0,0-.16-10.36l-.31-1.43,1.12.93a4.63,4.63,0,0,0,7.11-2.77l.1-.77.66.42a2.43,2.43,0,0,0,1.68.32L143,24l.91,4.84a1,1,0,0,0,.83.73,1.9,1.9,0,0,0,1.87-.67c.6-.91.59-2.22,0-4l-.15-.43.42-.19c1.63-.74,3.67.12,5.45,2.3l.18.22c1,1.26,2.08,2.56,3.43,2.82a18.73,18.73,0,0,0-3.06-11,.81.81,0,0,1-.26-.13.5.5,0,0,1-.19-.52l0-.06-.17-.23.12-.27a.85.85,0,0,1,.88-.5.87.87,0,0,1,.8.63.84.84,0,0,1-.16.74,19.72,19.72,0,0,1,3.06,12l0,.47h-.47c-2.05,0-3.44-1.72-4.67-3.23l-.18-.22c-.51-.62-2.19-2.49-3.84-2.16.57,1.88.5,3.33-.23,4.43a2.9,2.9,0,0,1-2.9,1.1,2.38,2.38,0,0,1-.65-.23l0,2-.33.11a3.39,3.39,0,0,1-2.25,0A5.42,5.42,0,0,1,138,35.75a5.55,5.55,0,0,1-4.25,0,27.15,27.15,0,0,1-.06,9.63,3.56,3.56,0,0,1-.93,2.06,2.21,2.21,0,0,1-1.82.54,3.18,3.18,0,0,1-2.22-1.41,4.46,4.46,0,0,1-.58-1.44,10.44,10.44,0,0,1-5.56,5.13c.27,2.39.46,4.82.58,7.22a3,3,0,0,1-.82,2.64,1.79,1.79,0,0,1-1.61.27,2.45,2.45,0,0,1-.58-.25,10.31,10.31,0,0,1-4,6A.5.5,0,0,1,115.87,66.2Z" transform="translate(-0.03 0)"/><path class="cls-1" d="M301.65,158.13a.5.5,0,0,1-.27-.08c-7.26-4.58-9.3-14-8.8-21.29.36-5.21,1.77-10.31,3.13-15.25.71-2.58,1.45-5.24,2-7.88,2.51-11.54,2.21-23.53,1.91-35.13v-.59l.58.08a12.93,12.93,0,0,1,6.07,2.59,5.61,5.61,0,0,0,.61-3.64,1.81,1.81,0,0,1-1.09-.12c-1.58-.68-2.38-3.35-2.59-4.16-.94-3.64-3.49-6.76-5.74-9.5l-14-17.09c-5.63-6.87-11.44-14-18.81-19.17-5.53-3.9-11.84-6.67-18-9.34-6.84-3-13.91-6.09-21.27-7.9s-14.78-2.34-22.09-2.89l-9.5-.71c-2.54-.19-5.41-.4-7.9.59-2.23.89-4.35,3.22-3.89,5.78l-1,.21-1.7-7-.74,6.6a4.07,4.07,0,0,1-.84,2.4,2.16,2.16,0,0,1-2.15.66c-1.61-.38-3.06-2.23-3.53-3.81-.59-2-1.45-4.21-2.93-4.47a29.22,29.22,0,0,1,.35,10.08l-.08.56-.55-.15a5.44,5.44,0,0,1-2.69-1.76l.64,7-.72-.23a14.52,14.52,0,0,1-7.32-5.39.5.5,0,1,1,.82-.58,13.53,13.53,0,0,0,6.09,4.76L165,13c0-.16,0-.31,0-.47l1-.07,0,.41a4.68,4.68,0,0,0,2.67,3.51,28.23,28.23,0,0,0-.55-9.72L168,6.15l.54-.08c2.91-.42,4.09,3.51,4.58,5.19a4.78,4.78,0,0,0,2.8,3.12,1.16,1.16,0,0,0,1.19-.37,3.18,3.18,0,0,0,.58-1.83L179,0l2.39,9.75a7.69,7.69,0,0,1,4.18-4c2.7-1.08,5.7-.86,8.35-.66l9.5.71c7.35.55,15,1.11,22.26,2.92s14.55,4.95,21.43,8c6.16,2.69,12.52,5.48,18.13,9.44,7.48,5.28,13.34,12.44,19,19.36l14,17.09c2.32,2.83,4.94,6,5.93,9.89.38,1.47,1.15,3.12,2,3.49a.87.87,0,0,0,.82-.07l.55-.31.17.61a6.59,6.59,0,0,1-.92,5.48l-.32.46-.42-.36a11.91,11.91,0,0,0-5.42-2.62c.29,11.47.54,23.31-2,34.76-.58,2.67-1.32,5.35-2,7.94-1.35,4.89-2.75,9.94-3.1,15-.49,7,1.45,16,8.33,20.37a.5.5,0,0,1-.27.92Z" transform="translate(-0.03 0)"/><path class="cls-1" d="M162.29,318.06h0a.5.5,0,0,1-.45-.54c1.07-12.1,1.58-24.39,1.53-36.54a.5.5,0,0,1,.5-.5h0a.5.5,0,0,1,.5.5c.05,12.18-.46,24.5-1.53,36.63A.5.5,0,0,1,162.29,318.06Z" transform="translate(-0.03 0)"/><path class="cls-1" d="M2.78,474.16a.5.5,0,0,1-.49-.39c-6.7-29.13,1.68-62.86,22.44-90.23a100.59,100.59,0,0,1,15.68-16.77c9.91-8.26,22-14.12,32.69-19.29l.79-.38c29.64-14.36,60.29-29.2,84-52.36a.5.5,0,0,1,.7.71C134.77,318.73,104,333.61,74.33,348l-.8.39c-11.15,5.4-22.67,11-32.49,19.16a99.66,99.66,0,0,0-15.52,16.6C5,411.28-3.37,444.7,3.27,473.55a.5.5,0,0,1-.37.6Z" transform="translate(-0.03 0)"/><path class="cls-1" d="M160.93,367.84a105.11,105.11,0,0,1-24.86-3,4.64,4.64,0,0,1-2.34-1.09,4.74,4.74,0,0,1-1-1.86l-.13-.36A10,10,0,0,0,122,355.38a.5.5,0,0,1-.16-1,11,11,0,0,1,11.68,6.81l.13.37a4,4,0,0,0,.76,1.49,3.8,3.8,0,0,0,1.86.82A104,104,0,0,0,165,366.76a.52.52,0,0,1,.52.48.5.5,0,0,1-.48.52Q163,367.84,160.93,367.84Z" transform="translate(-0.03 0)"/><path class="cls-1" d="M274.27,286.33a3.06,3.06,0,0,1-2.54-1.22.5.5,0,0,1,.8-.6,2.1,2.1,0,0,0,1.8.82,4.82,4.82,0,0,0,3.58-2.06,16,16,0,0,0,1.44-3,14.07,14.07,0,0,1,1.93-3.68,15.61,15.61,0,0,1,5-3.6c2.42-1.29,4.71-2.5,5.33-4.89a9.51,9.51,0,0,0-.26-4.23,200.41,200.41,0,0,1-4.24-46.33.5.5,0,0,1,.5-.49h0a.5.5,0,0,1,.49.51,199.33,199.33,0,0,0,4.22,46.08,10.28,10.28,0,0,1,.26,4.71c-.72,2.82-3.32,4.19-5.83,5.53a14.89,14.89,0,0,0-4.74,3.34,13.13,13.13,0,0,0-1.78,3.42,16.86,16.86,0,0,1-1.53,3.15,5.81,5.81,0,0,1-4.39,2.5Z" transform="translate(-0.03 0)"/><path class="cls-1" d="M427.61,489.34a.5.5,0,0,1-.38-.17c-4.92-5.63-3.49-13.89-2.23-21.19.16-.92.32-1.83.46-2.72,4.24-26.39-7-51.62-20.94-79.5-3.24-6.46-6.58-13.14-10.82-19.12a72,72,0,0,0-23.33-21c-2.77-1.55-6.07-3.15-9.48-3a21.45,21.45,0,0,0-5.52,1.16c-.83.25-1.66.5-2.5.71-14.95,3.69-29.13-6.22-41.25-15.81l-38.55-30.49a18.12,18.12,0,0,1-4.34-4.33,16.78,16.78,0,0,1-2-6.36,116.44,116.44,0,0,1-.75-30.82.51.51,0,0,1,.55-.44.5.5,0,0,1,.44.55,115.45,115.45,0,0,0,.74,30.55,16,16,0,0,0,1.84,6,17.09,17.09,0,0,0,4.11,4.08l38.55,30.49c11.93,9.44,25.88,19.2,40.38,15.62.82-.2,1.63-.45,2.45-.69a22.56,22.56,0,0,1,5.78-1.2c3.67-.09,7.11,1.53,10,3.15a73,73,0,0,1,23.65,21.27c4.29,6,7.65,12.75,10.9,19.25,14,28,25.32,53.42,21,80.11-.14.9-.3,1.81-.46,2.74-1.29,7.42-2.61,15.09,2,20.36a.5.5,0,0,1-.38.83Z" transform="translate(-0.03 0)"/><path class="cls-1" d="M259.45,384a1.37,1.37,0,0,1-.75-.23c-1.12-.72-1.29-2.84-1.31-3.26-.18-3.25-2.15-6.5-5.4-8.92-3-2.21-6.51-3.49-9.95-4.73l-.68-.24.46-.55c1.43-1.69,3.53-2.44,5.57-3.17s3.88-1.39,5.14-2.87a11.55,11.55,0,0,0,1.72-3.27,10.47,10.47,0,0,1,2.33-4c2.08-1.94,5.13-2,8.06-1.81l33.74,1.74a.5.5,0,0,1,.47.52.46.46,0,0,1-.52.47l-33.74-1.74c-2.72-.14-5.53-.14-7.33,1.54a9.62,9.62,0,0,0-2.08,3.63,12.43,12.43,0,0,1-1.89,3.54c-1.43,1.68-3.53,2.43-5.56,3.16a13.36,13.36,0,0,0-4.63,2.34,36.26,36.26,0,0,1,9.48,4.61c3.49,2.6,5.6,6.12,5.8,9.66a3.64,3.64,0,0,0,.85,2.47.41.41,0,0,0,.41,0c.28-.11.47-.46.67-.88a58.39,58.39,0,0,1,13.46-17.87.5.5,0,0,1,.67.74,57.38,57.38,0,0,0-13.23,17.56,2.49,2.49,0,0,1-1.21,1.38A1.55,1.55,0,0,1,259.45,384Z" transform="translate(-0.03 0)"/><path class="cls-1" d="M200.77,369.62l-.14,0a.5.5,0,0,1-.34-.62c2.8-9.63.4-20-1.72-29.08l-7-30.2a.5.5,0,1,1,1-.23l7,30.2c2.15,9.24,4.58,19.7,1.71,29.59A.5.5,0,0,1,200.77,369.62Z" transform="translate(-0.03 0)"/><path class="cls-1" d="M186.14,362.43a.5.5,0,0,1-.46-.32l-10.17-25.7c-.28-.71-.78-1.52-1.35-1.53a.49.49,0,0,1-.53-.47.5.5,0,0,1,.47-.52c.95-.06,1.75.68,2.34,2.16l10.17,25.7a.5.5,0,0,1-.28.65A.49.49,0,0,1,186.14,362.43Z" transform="translate(-0.03 0)"/><path class="cls-1" d="M154.54,360a1.72,1.72,0,0,1-.91-.28.5.5,0,1,1,.53-.85.64.64,0,0,0,.68,0,3.8,3.8,0,0,0,1.41-2.75l1.92-19.7a.51.51,0,0,1,.55-.45.5.5,0,0,1,.45.55l-1.92,19.7c-.13,1.32-.86,3-2,3.55A1.67,1.67,0,0,1,154.54,360Z" transform="translate(-0.03 0)"/><path class="cls-1" d="M77.69,488.06h0c-5.2-.31-9.31-4-11.85-7-1.45-1.73-2.73-3.62-4-5.44A65.06,65.06,0,0,0,57.68,470a.5.5,0,0,1,.76-.65A65.72,65.72,0,0,1,62.66,475c1.23,1.81,2.5,3.67,3.92,5.37,2.41,2.88,6.29,6.37,11.14,6.67a.5.5,0,0,1,0,1Z" transform="translate(-0.03 0)"/><path class="cls-1" d="M349.89,494.55a.5.5,0,0,1-.5-.47c-.29-4.69,3.71-8.08,7.24-11.08l.93-.79a45.39,45.39,0,0,0,10.61-13.42.5.5,0,0,1,.89.46A46.42,46.42,0,0,1,358.21,483l-.94.8c-3.35,2.84-7.15,6.07-6.89,10.25a.5.5,0,0,1-.47.53Z" transform="translate(-0.03 0)"/><path class="cls-1" d="M231.23,260.23a.5.5,0,0,1-.21,0,110.75,110.75,0,0,0-20-7.1,2,2,0,0,0-1-.09c-.41.12-.7.57-1,1.05l-.16.25c-2.92,4.46-6.1,3-8.92,1.7a10.46,10.46,0,0,0-4-1.26c-2.54,0-4.22,1.18-6,2.45-2,1.4-4,2.84-7.25,2.54a.5.5,0,0,1,.1-1c2.82.28,4.65-1,6.58-2.37s3.76-2.63,6.59-2.63a11.15,11.15,0,0,1,4.45,1.35c2.8,1.29,5.22,2.4,7.66-1.34l.15-.23a3,3,0,0,1,1.57-1.48,2.91,2.91,0,0,1,1.52.08,111.79,111.79,0,0,1,20.14,7.17.5.5,0,0,1-.21,1Z" transform="translate(-0.03 0)"/><path class="cls-1" d="M202.69,276.34a62.1,62.1,0,0,1-11.2-1.12,10.39,10.39,0,0,1-4.9-1.87c-1.54-1.27-2.22-3.14-2.88-5a12.38,12.38,0,0,0-2.05-4.06.5.5,0,1,1,.75-.66,13.31,13.31,0,0,1,2.24,4.38c.64,1.76,1.25,3.43,2.58,4.53a9.58,9.58,0,0,0,4.45,1.66c7.57,1.39,13.94,1.46,19.46.21,6.83-1.54,12.61-5.31,15.86-10.34a.5.5,0,0,1,.84.54c-3.4,5.24-9.4,9.17-16.48,10.77A39.12,39.12,0,0,1,202.69,276.34Z" transform="translate(-0.03 0)"/><path class="cls-1" d="M205.4,266c-4.75,0-9.12-.92-11-4.07l-.28-.48.5-.23c4.48-2,11.86-1,18.37,0,2.29.33,4.45.64,6.23.77l.88.07-.51.72c-1.17,1.65-3.26,2.16-5.15,2.45h0A62.64,62.64,0,0,1,205.4,266Zm-9.78-4.09c3.49,4.59,14.88,2.88,18.71,2.3h0a8.1,8.1,0,0,0,3.82-1.34c-1.59-.16-3.38-.42-5.27-.69C207.08,261.34,199.91,260.31,195.62,261.91Zm18.78,2.8h0Z" transform="translate(-0.03 0)"/><path class="cls-1" d="M198.49,235.24a.5.5,0,0,1-.48-.37A8.75,8.75,0,0,0,194,229.6a18.06,18.06,0,0,0-4.24-1.56.5.5,0,0,1,.27-1,18.77,18.77,0,0,1,4.47,1.66,9.75,9.75,0,0,1,4.52,5.87.5.5,0,0,1-.35.61Z" transform="translate(-0.03 0)"/><path class="cls-1" d="M208.19,234.42h-.1a.5.5,0,0,1-.39-.59,6.87,6.87,0,0,1,7.1-5.38.5.5,0,0,1,.46.54.51.51,0,0,1-.54.46,5.93,5.93,0,0,0-6,4.58A.5.5,0,0,1,208.19,234.42Z" transform="translate(-0.03 0)"/><path class="cls-1" d="M217.82,233.57a.5.5,0,0,1-.08-1c2.45-.4,4-3,4.17-5.32.22-2.58-.74-5.19-1.59-7.49a.5.5,0,1,1,.94-.35c.89,2.4,1.9,5.13,1.65,7.92s-2,5.74-5,6.22Z" transform="translate(-0.03 0)"/><path class="cls-1" d="M192.76,236.58h-.11c-3.76-.86-7-4.12-7.49-7.57a14.43,14.43,0,0,1,.81-6.92c.18-.63.38-1.29.57-2a.5.5,0,0,1,1,.25c-.19.74-.39,1.42-.58,2.05a13.63,13.63,0,0,0-.78,6.49c.45,3.06,3.34,6,6.72,6.74a.5.5,0,0,1-.11,1Z" transform="translate(-0.03 0)"/><path class="cls-1" d="M213.19,204.87a.5.5,0,0,1-.5-.45,58.48,58.48,0,0,1,.4-15.65.5.5,0,0,1,1,.16,57.46,57.46,0,0,0-.4,15.38.5.5,0,0,1-.44.55Z" transform="translate(-0.03 0)"/><path class="cls-1" d="M229.1,195.39h0a.5.5,0,0,1-.47-.53l.24-3.88a.49.49,0,0,1,.53-.47.5.5,0,0,1,.47.53l-.24,3.88A.5.5,0,0,1,229.1,195.39Z" transform="translate(-0.03 0)"/><path class="cls-1" d="M231.7,196a.5.5,0,0,1-.5-.5V190.8a.5.5,0,0,1,1,0v4.74A.5.5,0,0,1,231.7,196Z" transform="translate(-0.03 0)"/><path class="cls-1" d="M234.44,196.07h-.08a1,1,0,0,1-.75-.89l-.2-3.49a.5.5,0,0,1,.47-.53.49.49,0,0,1,.53.47l.19,3.35.08,0a.5.5,0,0,1,.33.63A.6.6,0,0,1,234.44,196.07Z" transform="translate(-0.03 0)"/><path class="cls-1" d="M236.53,196.48a.5.5,0,0,1-.5-.47l-.17-3.25a.5.5,0,0,1,.47-.53.51.51,0,0,1,.53.47L237,196a.5.5,0,0,1-.47.53Z" transform="translate(-0.03 0)"/><path class="cls-1" d="M238.33,196.31l-.05-4,1,0h-.5l.5,0,0,2.58a.49.49,0,0,1,.37,0,.5.5,0,0,1,.2.68,1.33,1.33,0,0,1-1,.67Z" transform="translate(-0.03 0)"/><path class="cls-1" d="M241.38,196.8l-1.12-4.15a.5.5,0,0,1,.87-.44l.46-2.71.48,3a9.79,9.79,0,0,0,.75,2.47.5.5,0,1,1-.91.41q-.11-.25-.21-.5Z" transform="translate(-0.03 0)"/><path class="cls-1" d="M244.61,195.54a.66.66,0,0,1-.34-.1,1,1,0,0,1-.41-.75l-.38-3a.5.5,0,0,1,.43-.56.51.51,0,0,1,.56.43l.35,2.73a.5.5,0,0,1,.39.23.61.61,0,0,1-.09.76A.72.72,0,0,1,244.61,195.54Zm-.24-.44h0Z" transform="translate(-0.03 0)"/><path class="cls-1" d="M246.55,195.39h-.05a.5.5,0,0,1-.45-.55,11.38,11.38,0,0,0-.11-3.11.5.5,0,0,1,.41-.58.51.51,0,0,1,.58.41,12.37,12.37,0,0,1,.12,3.38A.5.5,0,0,1,246.55,195.39Z" transform="translate(-0.03 0)"/><path class="cls-1" d="M251.39,194.69a.5.5,0,0,1-.24-.06c-1.34-.75-2.87-1.81-2.85-3.47a.5.5,0,0,1,.5-.49h0a.5.5,0,0,1,.49.51c0,1.13,1.24,2,2.34,2.59a.5.5,0,0,1-.24.94Z" transform="translate(-0.03 0)"/><path class="cls-1" d="M155.53,197.29a.5.5,0,0,1-.45-.71c.54-1.15,1-2.35,1.46-3.55a.5.5,0,1,1,.94.34c-.44,1.23-.94,2.45-1.49,3.63A.5.5,0,0,1,155.53,197.29Z" transform="translate(-0.03 0)"/><path class="cls-1" d="M158,197.34h0a.5.5,0,0,1-.45-.54,9.81,9.81,0,0,1,1.07-3.66.5.5,0,1,1,.89.46,8.81,8.81,0,0,0-1,3.29A.5.5,0,0,1,158,197.34Z" transform="translate(-0.03 0)"/><path class="cls-1" d="M160.15,198a.5.5,0,0,1-.46-.71,9,9,0,0,0,.6-3.2.5.5,0,1,1,1-.08,9.78,9.78,0,0,1-.69,3.69A.5.5,0,0,1,160.15,198Z" transform="translate(-0.03 0)"/><path class="cls-1" d="M163.47,197.54h0A.5.5,0,0,1,163,197l.14-1.93a.49.49,0,0,1,.53-.46.5.5,0,0,1,.46.53l-.14,1.93A.5.5,0,0,1,163.47,197.54Z" transform="translate(-0.03 0)"/><path class="cls-1" d="M166.18,196.69a.5.5,0,0,1-.5-.5v-1.94a.5.5,0,0,1,1,0v1.94A.5.5,0,0,1,166.18,196.69Z" transform="translate(-0.03 0)"/><path class="cls-1" d="M168.23,197.57a.5.5,0,0,1-.49-.41,10.34,10.34,0,0,1-.1-3,.51.51,0,0,1,.55-.44.5.5,0,0,1,.44.55,9.33,9.33,0,0,0,.09,2.67.5.5,0,0,1-.4.58Z" transform="translate(-0.03 0)"/><path class="cls-1" d="M170.47,197.12h-.05a.5.5,0,0,1-.45-.55,9.78,9.78,0,0,0-.09-2.68.5.5,0,1,1,1-.17,10.76,10.76,0,0,1,.1,3A.5.5,0,0,1,170.47,197.12Z" transform="translate(-0.03 0)"/><path class="cls-1" d="M173.28,195.82h-.08a.5.5,0,0,1-.42-.57,3.43,3.43,0,0,0-.17-1.69.5.5,0,1,1,.94-.35,4.43,4.43,0,0,1,.22,2.19A.5.5,0,0,1,173.28,195.82Z" transform="translate(-0.03 0)"/></svg>